<?xml version="1.0" encoding="utf-8"?>
<!-- Svg Vector Icons : http://www.onlinewebfonts.com/icon -->
<!DOCTYPE svg PUBLIC "-//W3C//DTD SVG 1.1//EN" "http://www.w3.org/Graphics/SVG/1.1/DTD/svg11.dtd">
<svg version="1.1" xmlns="http://www.w3.org/2000/svg" xmlns:xlink="http://www.w3.org/1999/xlink" x="0px" y="0px" viewBox="0 0 1000 1000" enable-background="new 0 0 1000 1000" xml:space="preserve">
<metadata> Svg Vector Icons : http://www.onlinewebfonts.com/icon </metadata>
<g><g transform="translate(0.000000,511.000000) scale(0.100000,-0.100000)"><path d="M6387.9,4421.1c-103.8-19.2-174.9-65.4-174.9-111.5c0-19.2,55.8-150,123-292.2C7085.7,2454.6,7577.8,445.7,7647-1342c11.5-299.9,17.3-336.4,51.9-369.1c65.4-59.6,246.1-34.6,322.9,46.1c38.5,40.4,40.4,55.8,28.8,311.4c-32.7,749.7-163.4,1757-319.1,2464.4c-203.8,924.6-590.2,2039.6-1093.8,3160.3C6574.4,4413.4,6522.5,4444.2,6387.9,4421.1z"/><path d="M8166.1,3852.1c-107.6-196.1-111.5-207.6-76.9-230.7c634.4-436.4,991.9-890,1199.5-1520.5c100-309.5,125-476.7,125-859.3c0-490.2-71.1-805.5-273-1216.8c-50-103.8-94.2-192.2-98-199.9c-3.8-7.7,88.4-61.5,205.7-121.1L9461.7-402l98,194.2c455.6,909.3,453.7,1993.4-5.8,2908.5c-267.2,536.3-724.7,1034.2-1207.2,1316.8l-69.2,38.4L8166.1,3852.1z"/><path d="M5991.9,3902.1c-282.6-286.4-790.1-722.8-1203.4-1030.4c-888.1-661.3-1883.9-1214.9-2870-1593.6c-146.1-55.7-269.1-105.7-273-109.6c-13.5-13.5,30.8-576.7,61.5-770.8C1766.7,7.4,1899.3-405.9,2105-846.1c46.1-101.9,94.2-190.3,105.7-198c9.6-5.8,165.3,5.8,344.1,26.9c1270.6,144.2,2656.7,67.3,3954.2-223c269.1-59.6,818.9-207.6,920.8-248c36.5-15.4,36.5,59.6-7.7,740.1C7333.7,661,6985.8,2081.6,6405.2,3413.8c-98,221.1-282.6,605.5-294.1,605.5C6109.2,4019.3,6055.4,3967.4,5991.9,3902.1z"/><path d="M7789.3,3160c-46.2-82.7-98-176.9-117.3-209.5l-36.5-59.6l82.7-53.8c117.3-78.8,347.9-305.6,455.6-453.7c128.8-171.1,259.5-449.8,319.1-680.5c44.2-167.2,51.9-230.7,51.9-480.6s-7.7-313.3-51.9-480.6c-26.9-105.7-88.4-273-136.5-371l-84.6-176.9l207.6-105.7c167.2-82.7,213.4-100,230.7-78.8c36.5,44.2,151.9,311.4,201.9,467.1c140.3,449.8,153.8,897.7,40.4,1355.2c-146.1,580.5-534.4,1124.6-1032.3,1445.6l-50,32.7L7789.3,3160z"/><path d="M1236.1,1037.8c-26.9-9.6-148-46.1-269.1-78.8c-294.1-76.9-424.8-146.1-580.5-301.8C200,468.8,100,234.3,100-23.3c0-128.8,100-542.1,165.3-678.6c130.7-274.9,434.4-488.3,759.3-530.6c159.6-21.1,174.9-19.2,499.8,51.9c184.5,40.4,336.4,75,338.3,76.9c3.8,1.9-40.4,105.7-98,232.6C1507.1-296.3,1374.5,240,1338,843.7C1324.5,1066.6,1320.7,1072.4,1236.1,1037.8z"/><path d="M3531.3-1203.6c-409.5-23-903.5-109.6-1015-174.9c-111.5-63.4-94.2-107.6,109.6-305.6c178.8-173,315.3-349.9,367.2-474.8c15.4-32.7,51.9-190.3,84.6-349.9c142.3-703.6,390.2-1253.4,686.3-1524.4c190.3-174.9,324.9-207.6,609.4-146.1c311.4,65.4,513.3,244.1,513.3,453.7c0,48.1-32.7,161.5-84.6,292.2c-151.9,378.7-174.9,496-173,859.3c1.9,286.4,5.8,334.5,53.8,490.2c121.1,411.4,148,536.3,142.2,657.4c-3.8,65.4-13.4,124.9-21.1,132.6c-23.1,23.1-296,63.4-567.1,84.6C3990.8-1192.1,3758.2-1190.2,3531.3-1203.6z"/></g></g>
</svg>